<svg width="95" height="67" viewBox="0 0 95 67" fill="none" xmlns="http://www.w3.org/2000/svg">
<path d="M10.836 46.36C9.156 46.36 7.692 46.036 6.444 45.388C5.196 44.74 4.224 43.84 3.528 42.688C2.856 41.512 2.52 40.144 2.52 38.584V33.616C2.52 32.056 2.856 30.7 3.528 29.548C4.224 28.372 5.196 27.46 6.444 26.812C7.692 26.164 9.156 25.84 10.836 25.84C12.492 25.84 13.932 26.164 15.156 26.812C16.404 27.46 17.364 28.372 18.036 29.548C18.732 30.7 19.08 32.056 19.08 33.616V37.18H6.876V38.584C6.876 39.976 7.212 41.032 7.884 41.752C8.556 42.448 9.552 42.796 10.872 42.796C11.88 42.796 12.696 42.628 13.32 42.292C13.944 41.932 14.34 41.416 14.508 40.744H18.936C18.6 42.448 17.688 43.816 16.2 44.848C14.736 45.856 12.948 46.36 10.836 46.36ZM14.724 34.66V33.58C14.724 32.212 14.4 31.168 13.752 30.448C13.104 29.704 12.132 29.332 10.836 29.332C9.54 29.332 8.556 29.704 7.884 30.448C7.212 31.192 6.876 32.248 6.876 33.616V34.372L15.048 34.3L14.724 34.66ZM23.4579 46V26.2H27.1299V28.864H27.8859L27.2739 29.512C27.2739 28.408 27.5859 27.52 28.2099 26.848C28.8339 26.176 29.6379 25.84 30.6219 25.84C31.6779 25.84 32.4939 26.272 33.0699 27.136C33.6699 28 33.9699 29.164 33.9699 30.628L33.1779 28.864H34.4019L33.9339 29.512C33.9339 28.408 34.2459 27.52 34.8699 26.848C35.4939 26.176 36.3219 25.84 37.3539 25.84C38.5779 25.84 39.5499 26.296 40.2699 27.208C40.9899 28.12 41.3499 29.356 41.3499 30.916V46H37.3899V31.096C37.3899 30.448 37.2459 29.944 36.9579 29.584C36.6699 29.2 36.2499 29.008 35.6979 29.008C35.1699 29.008 34.7499 29.188 34.4379 29.548C34.1499 29.908 34.0059 30.424 34.0059 31.096V46H30.7659V31.096C30.7659 30.424 30.6219 29.908 30.3339 29.548C30.0459 29.188 29.6259 29.008 29.0739 29.008C28.5219 29.008 28.1019 29.188 27.8139 29.548C27.5499 29.908 27.4179 30.424 27.4179 31.096V46H23.4579Z" fill="white"/>
<path d="M45.9079 43.984V39.844L56.3479 35.02C56.8279 34.804 57.2959 34.624 57.7519 34.48C58.2319 34.312 58.6039 34.204 58.8679 34.156C58.6039 34.108 58.2319 34.024 57.7519 33.904C57.2719 33.76 56.8039 33.58 56.3479 33.364L45.9079 28.504V24.292L62.0359 31.888V36.388L45.9079 43.984ZM66.1978 49.312V46.6H77.7178V49.312H66.1978Z" fill="#CD7B00"/>
</svg>
